<svg width="25" height="25" viewBox="0 0 25 25" fill="none" xmlns="http://www.w3.org/2000/svg">
<path d="M10.1569 12.5003C10.1569 11.2059 11.2062 10.1566 12.5007 10.1566C13.7951 10.1566 14.8444 11.2059 14.8444 12.5003C14.8444 13.7947 13.7951 14.8441 12.5007 14.8441C11.2062 14.8441 10.1569 13.7947 10.1569 12.5003Z" fill="#C4C4C4"/>
<path fill-rule="evenodd" clip-rule="evenodd" d="M2.08398 12.5003C2.08398 14.208 2.52666 14.7831 3.412 15.9333C5.17978 18.23 8.14452 20.8337 12.5007 20.8337C16.8568 20.8337 19.8215 18.23 21.5893 15.9333C22.4746 14.7831 22.9173 14.208 22.9173 12.5003C22.9173 10.7926 22.4746 10.2175 21.5893 9.06734C19.8215 6.7707 16.8568 4.16699 12.5007 4.16699C8.14452 4.16699 5.17978 6.7707 3.412 9.06734C2.52666 10.2175 2.08398 10.7926 2.08398 12.5003ZM12.5007 8.59408C10.3433 8.59408 8.5944 10.343 8.5944 12.5003C8.5944 14.6577 10.3433 16.4066 12.5007 16.4066C14.658 16.4066 16.4069 14.6577 16.4069 12.5003C16.4069 10.343 14.658 8.59408 12.5007 8.59408Z" fill="#C4C4C4"/>
</svg>